<svg xmlns="http://www.w3.org/2000/svg" viewBox="0 0 700 150" preserveAspectRatio="xMidYMid">
    <g transform="scale(0.1) rotate(180) translate(3000 -500)" transform-origin="50%">
        <path style="
                  fill: #66c989;
                  fill-opacity: 1;
                  fill-rule: evenodd;
                  stroke: none;
                "
            d="m 537.965,1050.33 c 19.187,24.5 45.996,40.69 75.094,47.05 10.027,-28.43 10.226,-60.23 -0.985,-89.79 24.879,18.71 54.969,27.41 84.719,26.02 2.316,-30.06 -5.715,-60.825 -24.195,-86.465 28.871,11.632 60.187,12.238 88.566,3.203 -5.539,-29.649 -21.266,-57.282 -45.75,-77.266 30.895,3.766 61.301,-3.754 86.379,-19.828 -13.02,-27.203 -35.363,-49.828 -64.188,-62.793 30.817,-4.363 58.243,-19.492 78.301,-41.512 -19.621,-22.906 -47.058,-38.976 -78.261,-44.035 28.644,-12.191 51.222,-33.902 64.902,-60.367 -24.879,-17.039 -55.539,-25.469 -86.984,-22.285 24.507,-19.188 40.703,-46 47.074,-75.094 -28.449,-10.027 -60.246,-10.227 -89.797,0.984 18.703,-24.879 27.41,-54.972 26.027,-84.726 l -1.238,-0.082 c -23.051,23.308 -51.203,37.004 -81.594,37.004 -3.137,0 -6.254,-0.145 -9.34,-0.442 l 0.008,-0.011 c -2.199,-0.204 -4.39,-0.477 -6.558,-0.825 l -0.235,-0.039 -0.031,-0.004 -0.266,-0.043 -0.261,-0.046 -0.266,-0.043 -0.055,-0.012 -0.207,-0.039 h -0.004 c -26.097,-4.531 -50.004,-19.223 -69.722,-41.235 l -0.008,0.012 c -3.113,-3.473 -6.121,-7.129 -9.016,-10.961 l -0.527,-0.703 -1.121,-1.512 -0.086,-0.117 -0.695,-0.961 -0.762,-1.058 -0.016,-0.024 -0.16,-0.23 -1.262,-1.797 -0.113,-0.16 -1.18,-1.739 -0.125,-0.183 -0.203,-0.305 -0.75,-1.129 -0.078,-0.117 -0.66,-1.012 -0.734,-1.144 c -10.243,-16.039 -18.7,-34.461 -24.922,-54.59 l -0.012,0.012 c -7.711,-24.934 -12,-52.516 -12,-81.528 0,-81.797 34.055,-152.273 83.016,-184.019 V 80.4102 H 267.793 v 32.0738 c 50.375,30.723 85.691,102.133 85.691,185.293 0,67.243 -23.097,126.77 -58.546,163.348 h 0.066 l -0.652,0.676 -0.004,0.004 -0.043,0.043 -0.043,0.043 -0.012,0.011 -0.031,0.02 -0.098,0.105 -0.199,0.196 -0.109,0.125 -0.059,0.058 -0.043,0.039 -0.047,0.051 -0.008,0.008 -0.152,0.152 -0.695,0.692 -0.004,0.004 -0.075,0.07 -0.007,0.004 -1.293,1.25 -0.106,0.109 -0.133,0.125 0.004,0.02 c -0.832,0.8 -1.675,1.586 -2.515,2.355 l -0.188,0.168 c -2.859,2.621 -5.785,5.09 -8.777,7.406 l -0.016,0.012 c -5.941,4.606 -12.136,8.621 -18.547,11.992 l -0.175,0.098 -0.383,0.191 c -3.078,1.594 -6.199,3.047 -9.375,4.34 l -0.321,0.125 c -4.316,1.738 -8.71,3.196 -13.179,4.344 l -0.262,0.07 v 0.004 l -0.262,0.059 c -2.195,0.551 -4.406,1.039 -6.632,1.445 l -0.415,0.07 c -0.976,0.172 -1.957,0.336 -2.941,0.481 l -0.488,0.07 -0.614,0.09 -0.011,-0.012 -0.035,0.008 -1.641,0.211 -0.207,0.027 -0.211,0.024 -0.047,0.004 -0.164,0.019 -0.844,0.094 -0.215,0.02 -0.027,0.007 -2.242,0.2 -1.703,0.113 -0.297,0.019 0.008,0.012 c -1.981,0.117 -3.981,0.176 -5.973,0.176 -3.547,0 -7.058,-0.188 -10.539,-0.551 l -0.613,-0.066 c -4.645,-0.52 -9.231,-1.364 -13.735,-2.508 l -0.078,-0.02 c -2.293,-0.586 -4.558,-1.25 -6.812,-1.988 l -0.051,-0.019 c -1.105,-0.364 -2.199,-0.747 -3.293,-1.149 l -0.238,-0.086 c -0.985,-0.363 -1.953,-0.742 -2.926,-1.133 l -0.285,-0.109 -0.16,-0.066 c -2.168,-0.891 -4.328,-1.844 -6.457,-2.875 l -0.067,-0.032 c -1.035,-0.504 -2.058,-1.019 -3.082,-1.558 l -0.262,-0.133 c -1.019,-0.535 -2.031,-1.082 -3.039,-1.652 l -0.031,-0.016 c -1.043,-0.59 -2.094,-1.207 -3.129,-1.832 l -0.109,-0.066 c -0.996,-0.602 -1.988,-1.215 -2.965,-1.852 l -0.117,-0.07 -0.156,-0.106 c -0.95,-0.617 -1.903,-1.254 -2.844,-1.898 l -0.195,-0.137 c -0.93,-0.641 -1.86,-1.301 -2.778,-1.973 l -0.187,-0.132 -0.149,-0.11 c -0.914,-0.672 -1.816,-1.347 -2.715,-2.047 l -0.238,-0.187 c -0.879,-0.68 -1.75,-1.375 -2.613,-2.078 l -0.735,-0.606 -1.96,-1.66 -0.934,-0.809 -2.137,-1.906 -0.855,-0.789 -1.782,-1.676 -1.199,-1.156 -1.316,-1.305 -1.434,-1.457 -0.054,-0.05 -1.528,0.054 c -2.324,30.075 5.727,60.84 24.168,86.457 -28.883,-11.632 -60.199,-12.234 -88.5467,-3.187 5.5352,29.644 21.2656,57.289 45.7107,77.25 -30.9021,-3.758 -61.3044,3.765 -86.3435,19.836 13.0195,27.203 35.3672,49.836 64.1484,62.793 -30.8242,4.367 -58.2461,19.5 -78.26949,41.504 19.61719,22.91 47.05469,38.98 78.21489,44.05 -28.6485,12.2 -51.2149,33.907 -64.8594,60.344 24.875,17.055 55.5508,25.481 86.9571,22.313 -24.5118,19.195 -40.6915,46 -47.0352,75.066 28.4453,10.035 60.2502,10.242 89.7692,-0.949 -18.707,24.883 -27.398,54.96 -25.996,84.68 30.074,2.33 60.844,-5.72 86.457,-24.16 -11.625,28.87 -12.234,60.19 -3.183,88.53 29.656,-5.53 57.293,-21.26 77.257,-45.71 -3.757,30.91 3.754,61.31 19.832,86.35 27.215,-13.02 49.844,-35.38 62.801,-64.17 4.371,30.84 19.492,58.27 41.508,78.29 22.914,-19.62 38.969,-47.06 44.031,-78.22 12.192,28.63 33.903,51.2 60.356,64.87 17.043,-24.87 25.472,-55.53 22.289,-86.97 z M 267.793,56.0078 H 557.684 V 2.10547 H 267.793 Z m 2.105,430.4262 h 286.094 v 106.613 h -61.965 v -52.699 h -50.101 v 52.699 h -61.961 v -52.699 h -50.106 v 52.699 h -61.961 v -52.699 -11.684 -42.23" />
    </g>
    <g transform="translate(70, 130)">
        <g>
            <path fill="currentColor"
                d="M34.50-13.25L34.50-13.25L34.50-13.25Q36.16-12.03 36.16-9.44L36.16-9.44L36.16-9.44Q36.16-6.85 35.04-5.02L35.04-5.02L35.04-5.02Q33.92-3.20 31.74-1.79L31.74-1.79L31.74-1.79Q27.07 1.22 18.91 1.22L18.91 1.22L18.91 1.22Q10.75 1.22 6.30-3.04L6.30-3.04L6.30-3.04Q1.86-7.30 1.86-14.85L1.86-14.85L1.86-14.85Q1.86-25.54 7.42-33.66L7.42-33.66L7.42-33.66Q11.65-39.68 19.20-42.24L19.20-42.24L19.20-42.24Q23.10-43.52 26.94-43.52L26.94-43.52L26.94-43.52Q30.78-43.52 33.15-43.01L33.15-43.01L33.15-43.01Q35.52-42.50 37.31-41.47L37.31-41.47L37.31-41.47Q41.22-39.23 41.22-35.65L41.22-35.65L41.22-35.65Q41.22-32.38 38.14-29.95L38.14-29.95L38.14-29.95Q35.33-27.78 33.02-27.78L33.02-27.78L33.02-27.78Q30.72-27.78 29.76-28.10L29.76-28.10L29.76-28.10Q30.02-30.40 30.02-31.90L30.02-31.90L30.02-31.90Q30.02-33.41 29.95-34.50L29.95-34.50L29.95-34.50Q29.89-35.58 29.57-36.61L29.57-36.61L29.57-36.61Q28.93-38.98 26.98-38.98L26.98-38.98L26.98-38.98Q25.02-38.98 23.07-37.15L23.07-37.15L23.07-37.15Q21.12-35.33 19.46-32.26L19.46-32.26L19.46-32.26Q15.68-25.28 15.68-17.02L15.68-17.02L15.68-17.02Q15.68-13.06 17.92-10.78L17.92-10.78L17.92-10.78Q20.16-8.51 24.96-8.51L24.96-8.51L24.96-8.51Q28.54-8.51 31.94-10.88L31.94-10.88L31.94-10.88Q33.41-11.90 34.50-13.25ZM65.34-4.80L65.34-4.80L65.34-4.80Q65.34-9.28 67.14-18.24L67.14-18.24L57.66-18.24L54.14 0L40.77 0L48.90-42.24L62.40-42.24L58.69-23.36L68.16-23.36L71.68-42.24L85.18-42.24L85.18-42.24Q84.29-37.50 83.14-32.19L83.14-32.19L80.96-21.76L80.96-21.76Q78.53-9.60 78.53-4.29L78.53-4.29L78.53-4.29Q78.53-2.11 79.23-0.90L79.23-0.90L79.23-0.90Q76.03 1.28 72.29 1.28L72.29 1.28L72.29 1.28Q68.54 1.28 66.94-0.51L66.94-0.51L66.94-0.51Q65.34-2.30 65.34-4.80ZM114.05-9.86L114.05-9.86L114.05-9.86Q115.26-8.32 115.26-5.82L115.26-5.82L115.26-5.82Q115.26-2.37 112.70-0.54L112.70-0.54L112.70-0.54Q110.14 1.28 106.11 1.28L106.11 1.28L106.11 1.28Q103.81 1.28 100.29 0.77L100.29 0.77L100.29 0.77Q93.38-0.32 91.26-0.32L91.26-0.32L91.26-0.32Q89.15-0.32 88.32-0.22L88.32-0.22L88.32-0.22Q87.49-0.13 86.14 0L86.14 0L94.02-42.24L121.60-42.24L121.60-42.24Q121.60-38.34 119.71-36.29L119.71-36.29L119.71-36.29Q117.82-34.24 114.11-34.24L114.11-34.24L114.11-34.24Q110.40-34.24 106.62-35.97L106.62-35.97L104.64-24.77L116.03-24.77L116.03-24.77Q116.03-21.38 114.37-19.49L114.37-19.49L114.37-19.49Q112.70-17.60 109.92-17.60L109.92-17.60L109.92-17.60Q107.14-17.60 105.41-18.24L105.41-18.24L105.41-18.24Q103.68-18.88 103.49-19.07L103.49-19.07L101.18-6.98L101.18-6.98Q102.72-6.78 105.60-6.78L105.60-6.78L105.60-6.78Q110.53-6.78 114.05-9.86ZM146.11-29.57L146.11-29.57L146.11-29.57Q147.07-31.49 147.07-33.28L147.07-33.28L147.07-33.28Q147.07-35.07 146.88-36.06L146.88-36.06L146.88-36.06Q146.69-37.06 146.24-37.82L146.24-37.82L146.24-37.82Q145.28-39.49 143.36-39.49L143.36-39.49L143.36-39.49Q140.99-39.49 139.07-37.76L139.07-37.76L139.07-37.76Q137.02-35.97 137.02-33.15L137.02-33.15L137.02-33.15Q137.02-31.36 138.27-29.98L138.27-29.98L138.27-29.98Q139.52-28.61 141.44-27.33L141.44-27.33L141.44-27.33Q143.36-26.05 145.54-24.77L145.54-24.77L145.54-24.77Q147.71-23.49 149.63-21.95L149.63-21.95L149.63-21.95Q154.05-18.43 154.05-13.70L154.05-13.70L154.05-13.70Q154.05-10.50 152.35-7.78L152.35-7.78L152.35-7.78Q150.66-5.06 147.84-3.07L147.84-3.07L147.84-3.07Q141.70 1.28 133.57 1.28L133.57 1.28L133.57 1.28Q126.98 1.28 123.58-0.86L123.58-0.86L123.58-0.86Q120.19-3.01 120.19-6.27L120.19-6.27L120.19-6.27Q120.19-12.10 124.74-13.57L124.74-13.57L124.74-13.57Q126.02-14.02 127.97-14.02L127.97-14.02L127.97-14.02Q129.92-14.02 132.16-13.18L132.16-13.18L132.16-13.18Q131.14-10.56 131.14-8.19L131.14-8.19L131.14-8.19Q131.14-3.07 134.78-3.07L134.78-3.07L134.78-3.07Q137.15-3.07 139.10-4.80L139.10-4.80L139.10-4.80Q141.06-6.53 141.06-8.48L141.06-8.48L141.06-8.48Q141.06-10.43 139.81-11.84L139.81-11.84L139.81-11.84Q138.56-13.25 136.70-14.37L136.70-14.37L136.70-14.37Q134.85-15.49 132.70-16.58L132.70-16.58L132.70-16.58Q130.56-17.66 128.70-19.20L128.70-19.20L128.70-19.20Q124.35-22.72 124.35-28.35L124.35-28.35L124.35-28.35Q124.35-32 126.14-34.85L126.14-34.85L126.14-34.85Q127.94-37.70 130.82-39.62L130.82-39.62L130.82-39.62Q136.58-43.52 143.65-43.52L143.65-43.52L143.65-43.52Q150.72-43.52 154.14-41.41L154.14-41.41L154.14-41.41Q157.57-39.30 157.57-35.71L157.57-35.71L157.57-35.71Q157.57-32.58 155.14-30.59L155.14-30.59L155.14-30.59Q153.02-28.93 150.46-28.93L150.46-28.93L150.46-28.93Q147.90-28.93 146.11-29.57ZM183.87-29.57L183.87-29.57L183.87-29.57Q184.83-31.49 184.83-33.28L184.83-33.28L184.83-33.28Q184.83-35.07 184.64-36.06L184.64-36.06L184.64-36.06Q184.45-37.06 184-37.82L184-37.82L184-37.82Q183.04-39.49 181.12-39.49L181.12-39.49L181.12-39.49Q178.75-39.49 176.83-37.76L176.83-37.76L176.83-37.76Q174.78-35.97 174.78-33.15L174.78-33.15L174.78-33.15Q174.78-31.36 176.03-29.98L176.03-29.98L176.03-29.98Q177.28-28.61 179.20-27.33L179.20-27.33L179.20-27.33Q181.12-26.05 183.30-24.77L183.30-24.77L183.30-24.77Q185.47-23.49 187.39-21.95L187.39-21.95L187.39-21.95Q191.81-18.43 191.81-13.70L191.81-13.70L191.81-13.70Q191.81-10.50 190.11-7.78L190.11-7.78L190.11-7.78Q188.42-5.06 185.60-3.07L185.60-3.07L185.60-3.07Q179.46 1.28 171.33 1.28L171.33 1.28L171.33 1.28Q164.74 1.28 161.34-0.86L161.34-0.86L161.34-0.86Q157.95-3.01 157.95-6.27L157.95-6.27L157.95-6.27Q157.95-12.10 162.50-13.57L162.50-13.57L162.50-13.57Q163.78-14.02 165.73-14.02L165.73-14.02L165.73-14.02Q167.68-14.02 169.92-13.18L169.92-13.18L169.92-13.18Q168.90-10.56 168.90-8.19L168.90-8.19L168.90-8.19Q168.90-3.07 172.54-3.07L172.54-3.07L172.54-3.07Q174.91-3.07 176.86-4.80L176.86-4.80L176.86-4.80Q178.82-6.53 178.82-8.48L178.82-8.48L178.82-8.48Q178.82-10.43 177.57-11.84L177.57-11.84L177.57-11.84Q176.32-13.25 174.46-14.37L174.46-14.37L174.46-14.37Q172.61-15.49 170.46-16.58L170.46-16.58L170.46-16.58Q168.32-17.66 166.46-19.20L166.46-19.20L166.46-19.20Q162.11-22.72 162.11-28.35L162.11-28.35L162.11-28.35Q162.11-32 163.90-34.85L163.90-34.85L163.90-34.85Q165.70-37.70 168.58-39.62L168.58-39.62L168.58-39.62Q174.34-43.52 181.41-43.52L181.41-43.52L181.41-43.52Q188.48-43.52 191.90-41.41L191.90-41.41L191.90-41.41Q195.33-39.30 195.33-35.71L195.33-35.71L195.33-35.71Q195.33-32.58 192.90-30.59L192.90-30.59L192.90-30.59Q190.78-28.93 188.22-28.93L188.22-28.93L188.22-28.93Q185.66-28.93 183.87-29.57Z">
            </path>
        </g>
        <g transform="translate(195.84498071670532, 0)">
            <path fill="#66c989"
                d="M2.69-39.68L2.69-39.68L2.69-39.68Q3.58-41.47 5.54-42.46L5.54-42.46L5.54-42.46Q7.49-43.46 10.18-43.46L10.18-43.46L10.18-43.46Q14.40-43.46 16.93-40.42L16.93-40.42L16.93-40.42Q19.46-37.38 19.46-30.72L19.46-30.72L19.46-7.87L34.11-42.18L41.66-42.18L43.39-9.79L43.20-7.94L58.43-42.18L67.20-42.18L46.72 0L33.09 0L31.81-19.46L23.36 0L7.94 0L6.02-30.72L6.02-30.72Q5.82-34.18 4.90-36.45L4.90-36.45L4.90-36.45Q3.97-38.72 2.69-39.68ZM64.96-15.62L64.96-15.62L64.96-15.62Q64.96-27.71 71.23-35.33L71.23-35.33L71.23-35.33Q77.89-43.58 89.47-43.58L89.47-43.58L89.47-43.58Q97.86-43.58 102.08-39.52L102.08-39.52L102.08-39.52Q106.30-35.46 106.30-26.88L106.30-26.88L106.30-26.88Q106.30-13.82 99.65-6.21L99.65-6.21L99.65-6.21Q93.06 1.28 81.98 1.28L81.98 1.28L81.98 1.28Q73.34 1.28 69.15-3.04L69.15-3.04L69.15-3.04Q64.96-7.36 64.96-15.62ZM81.79-28.86L81.79-28.86L81.79-28.86Q78.91-17.34 78.91-8.26L78.91-8.26L78.91-8.26Q78.91-6.08 79.65-4.67L79.65-4.67L79.65-4.67Q80.38-3.26 82.34-3.26L82.34-3.26L82.34-3.26Q84.29-3.26 85.50-4.19L85.50-4.19L85.50-4.19Q86.72-5.12 87.68-7.23L87.68-7.23L87.68-7.23Q89.22-10.69 90.66-18.02L90.66-18.02L90.66-18.02Q92.10-25.34 92.22-28.38L92.22-28.38L92.22-28.38Q92.35-31.42 92.35-33.73L92.35-33.73L92.35-33.73Q92.35-36.03 91.65-37.50L91.65-37.50L91.65-37.50Q90.94-38.98 89.06-38.98L89.06-38.98L89.06-38.98Q87.17-38.98 85.89-37.82L85.89-37.82L85.89-37.82Q83.52-35.65 81.79-28.86ZM110.40-15.62L110.40-15.62L110.40-15.62Q110.40-27.71 116.67-35.33L116.67-35.33L116.67-35.33Q123.33-43.58 134.91-43.58L134.91-43.58L134.91-43.58Q143.30-43.58 147.52-39.52L147.52-39.52L147.52-39.52Q151.74-35.46 151.74-26.88L151.74-26.88L151.74-26.88Q151.74-13.82 145.09-6.21L145.09-6.21L145.09-6.21Q138.50 1.28 127.42 1.28L127.42 1.28L127.42 1.28Q118.78 1.28 114.59-3.04L114.59-3.04L114.59-3.04Q110.40-7.36 110.40-15.62ZM127.23-28.86L127.23-28.86L127.23-28.86Q124.35-17.34 124.35-8.26L124.35-8.26L124.35-8.26Q124.35-6.08 125.09-4.67L125.09-4.67L125.09-4.67Q125.82-3.26 127.78-3.26L127.78-3.26L127.78-3.26Q129.73-3.26 130.94-4.19L130.94-4.19L130.94-4.19Q132.16-5.12 133.12-7.23L133.12-7.23L133.12-7.23Q134.66-10.69 136.10-18.02L136.10-18.02L136.10-18.02Q137.54-25.34 137.66-28.38L137.66-28.38L137.66-28.38Q137.79-31.42 137.79-33.73L137.79-33.73L137.79-33.73Q137.79-36.03 137.09-37.50L137.09-37.50L137.09-37.50Q136.38-38.98 134.50-38.98L134.50-38.98L134.50-38.98Q132.61-38.98 131.33-37.82L131.33-37.82L131.33-37.82Q128.96-35.65 127.23-28.86ZM196.42-26.56L196.42-26.56L196.42-26.56Q196.42 0.70 166.85 0.70L166.85 0.70L166.85 0.70Q162.11 0.70 154.30-0.45L154.30-0.45L161.47-38.27L161.47-38.27Q161.98-40.83 162.30-42.30L162.30-42.30L162.30-42.30Q172.03-43.01 176.35-43.01L176.35-43.01L176.35-43.01Q180.67-43.01 184.64-42.11L184.64-42.11L184.64-42.11Q188.61-41.22 191.23-39.23L191.23-39.23L191.23-39.23Q196.42-35.33 196.42-26.56ZM183.23-28.93L183.23-28.93L183.23-28.93Q183.23-38.46 176.38-38.46L176.38-38.46L175.74-38.46L175.74-38.46Q175.42-38.46 175.10-38.40L175.10-38.40L168.51-4.03L168.51-4.03Q168.77-3.90 169.02-3.90L169.02-3.90L169.54-3.90L169.54-3.90Q171.90-3.90 174.37-5.38L174.37-5.38L174.37-5.38Q176.83-6.85 178.75-9.86L178.75-9.86L178.75-9.86Q183.23-16.83 183.23-28.93ZM197.76-3.78L197.76-3.78L197.76-3.78Q197.76-6.21 199.65-7.55L199.65-7.55L199.65-7.55Q201.54-8.90 204.22-8.90L204.22-8.90L204.22-8.90Q206.91-8.90 208.54-7.55L208.54-7.55L208.54-7.55Q210.18-6.21 210.18-3.78L210.18-3.78L210.18-3.78Q210.18-1.34 208.35-0.03L208.35-0.03L208.35-0.03Q206.53 1.28 203.84 1.28L203.84 1.28L203.84 1.28Q201.15 1.28 199.46-0.03L199.46-0.03L199.46-0.03Q197.76-1.34 197.76-3.78ZM230.08 1.28L230.08 1.28L230.08 1.28Q216.00 1.28 216.00-11.97L216.00-11.97L216.00-11.97Q216.00-21.38 221.18-27.46L221.18-27.46L221.18-27.46Q226.69-33.92 236.22-33.92L236.22-33.92L236.22-33.92Q243.14-33.92 246.66-30.72L246.66-30.72L246.66-30.72Q250.18-27.52 250.18-20.80L250.18-20.80L250.18-20.80Q250.18-10.56 244.67-4.61L244.67-4.61L244.67-4.61Q239.30 1.28 230.08 1.28ZM231.74-26.56L231.74-26.56L231.74-26.56Q230.98-24.83 230.37-22.24L230.37-22.24L230.37-22.24Q229.76-19.65 228.99-15.55L228.99-15.55L228.99-15.55Q228.22-11.46 228.22-6.40L228.22-6.40L228.22-6.40Q228.22-4.74 228.77-3.65L228.77-3.65L228.77-3.65Q229.31-2.56 230.78-2.56L230.78-2.56L230.78-2.56Q232.26-2.56 233.18-3.26L233.18-3.26L233.18-3.26Q234.11-3.97 234.82-5.63L234.82-5.63L234.82-5.63Q236.10-8.58 237.12-14.05L237.12-14.05L237.12-14.05Q238.14-19.52 238.24-21.89L238.24-21.89L238.24-21.89Q238.34-24.26 238.34-26.02L238.34-26.02L238.34-26.02Q238.34-27.78 237.82-28.93L237.82-28.93L237.82-28.93Q237.31-30.08 235.87-30.08L235.87-30.08L235.87-30.08Q234.43-30.08 233.47-29.18L233.47-29.18L233.47-29.18Q232.51-28.29 231.74-26.56ZM281.02 1.28L281.02 1.28L281.02 1.28Q273.28 1.28 273.28-4.74L273.28-4.74L273.28-4.74Q273.34-6.40 273.86-9.22L273.86-9.22L275.01-15.10L275.01-15.10Q276.74-23.42 276.74-25.28L276.74-25.28L276.74-25.28Q276.74-28.99 274.56-28.99L274.56-28.99L274.56-28.99Q270.91-28.99 268.99-19.46L268.99-19.46L265.22 0L252.35 1.28L259.01-32.70L269.50-33.92L268.48-27.65L268.48-27.65Q271.49-33.92 280.70-33.92L280.70-33.92L280.70-33.92Q285.18-33.92 287.07-32.03L287.07-32.03L287.07-32.03Q288.96-30.14 288.96-25.92L288.96-25.92L288.96-25.92Q288.96-21.95 286.91-12.67L286.91-12.67L286.91-12.67Q285.95-8.51 285.95-6.94L285.95-6.94L285.95-6.94Q285.95-5.38 286.82-4.48L286.82-4.48L286.82-4.48Q287.68-3.58 288.96-3.46L288.96-3.46L288.96-3.46Q288.32-1.28 286.11 0L286.11 0L286.11 0Q283.90 1.28 281.02 1.28ZM309.38-3.52L309.38-3.52L309.38-3.52Q307.39 1.28 301.06 1.28L301.06 1.28L301.06 1.28Q297.86 1.28 295.81-0.96L295.81-0.96L295.81-0.96Q294.14-2.82 294.14-4.93L294.14-4.93L294.14-4.93Q294.14-9.73 296.38-20.22L296.38-20.22L301.06-44.80L314.05-46.08L307.84-13.70L307.84-13.70Q306.75-8.96 306.75-7.30L306.75-7.30L306.75-7.30Q306.75-3.65 309.38-3.52ZM330.18-3.52L330.18-3.52L330.18-3.52Q328.19 1.28 321.86 1.28L321.86 1.28L321.86 1.28Q318.59 1.28 316.54-0.96L316.54-0.96L316.54-0.96Q314.82-2.94 314.82-4.93L314.82-4.93L314.82-4.93Q314.82-10.11 317.18-20.22L317.18-20.22L319.55-32.64L332.54-33.92L328.64-13.70L328.64-13.70Q327.55-8.96 327.55-7.30L327.55-7.30L327.55-7.30Q327.55-3.65 330.18-3.52ZM320.70-41.54L320.70-41.54L320.70-41.54Q320.70-44.03 322.78-45.38L322.78-45.38L322.78-45.38Q324.86-46.72 327.87-46.72L327.87-46.72L327.87-46.72Q330.88-46.72 332.70-45.38L332.70-45.38L332.70-45.38Q334.53-44.03 334.53-41.54L334.53-41.54L334.53-41.54Q334.53-39.04 332.51-37.76L332.51-37.76L332.51-37.76Q330.50-36.48 327.49-36.48L327.49-36.48L327.49-36.48Q324.48-36.48 322.59-37.76L322.59-37.76L322.59-37.76Q320.70-39.04 320.70-41.54ZM362.69 1.28L362.69 1.28L362.69 1.28Q354.94 1.28 354.94-4.74L354.94-4.74L354.94-4.74Q355.01-6.40 355.52-9.22L355.52-9.22L356.67-15.10L356.67-15.10Q358.40-23.42 358.40-25.28L358.40-25.28L358.40-25.28Q358.40-28.99 356.22-28.99L356.22-28.99L356.22-28.99Q352.58-28.99 350.66-19.46L350.66-19.46L346.88 0L334.02 1.28L340.67-32.70L351.17-33.92L350.14-27.65L350.14-27.65Q353.15-33.92 362.37-33.92L362.37-33.92L362.37-33.92Q366.85-33.92 368.74-32.03L368.74-32.03L368.74-32.03Q370.62-30.14 370.62-25.92L370.62-25.92L370.62-25.92Q370.62-21.95 368.58-12.67L368.58-12.67L368.58-12.67Q367.62-8.51 367.62-6.94L367.62-6.94L367.62-6.94Q367.62-5.38 368.48-4.48L368.48-4.48L368.48-4.48Q369.34-3.58 370.62-3.46L370.62-3.46L370.62-3.46Q369.98-1.28 367.78 0L367.78 0L367.78 0Q365.57 1.28 362.69 1.28ZM401.66-10.82L401.66-10.82L401.66-10.82Q403.26-9.73 403.26-7.33L403.26-7.33L403.26-7.33Q403.26-4.93 402.05-3.39L402.05-3.39L402.05-3.39Q400.83-1.86 398.85-0.83L398.85-0.83L398.85-0.83Q394.75 1.28 390.34 1.28L390.34 1.28L390.34 1.28Q385.92 1.28 383.33 0.32L383.33 0.32L383.33 0.32Q380.74-0.64 379.01-2.43L379.01-2.43L379.01-2.43Q375.62-5.82 375.62-12.03L375.62-12.03L375.62-12.03Q375.62-21.70 380.86-27.58L380.86-27.58L380.86-27.58Q386.50-33.92 396.29-33.92L396.29-33.92L396.29-33.92Q402.37-33.92 405.38-31.36L405.38-31.36L405.38-31.36Q407.62-29.44 407.62-26.30L407.62-26.30L407.62-26.30Q407.62-15.04 388.16-15.04L388.16-15.04L388.16-15.04Q387.90-13.38 387.90-11.97L387.90-11.97L387.90-11.97Q387.90-9.02 389.22-7.90L389.22-7.90L389.22-7.90Q390.53-6.78 392.96-6.78L392.96-6.78L392.96-6.78Q395.39-6.78 397.98-7.90L397.98-7.90L397.98-7.90Q400.58-9.02 401.66-10.82ZM388.61-17.79L388.61-17.79L388.61-17.79Q393.15-17.79 395.78-20.61L395.78-20.61L395.78-20.61Q398.40-23.30 398.40-27.58L398.40-27.58L398.40-27.58Q398.40-29.06 397.86-29.86L397.86-29.86L397.86-29.86Q397.31-30.66 396.22-30.66L396.22-30.66L396.22-30.66Q395.14-30.66 394.21-30.24L394.21-30.24L394.21-30.24Q393.28-29.82 392.32-28.42L392.32-28.42L392.32-28.42Q389.95-25.22 388.61-17.79Z">
            </path>
        </g>
    </g>
</svg>