<svg xmlns="http://www.w3.org/2000/svg" width="640" height="640"><path vector-effect="non-scaling-stroke" d="M490.419 528.543c10.1 0 18.287 8.187 18.287 18.287v36.576c0 10.1-8.187 18.287-18.287 18.287H294.806v-73.721zM297.572 16.994l19.113-.507a9.144 9.144 0 019.144 9.143v45.72h45.72a9.144 9.144 0 019.143 9.144v54.863a9.144 9.144 0 01-9.144 9.144h-45.72v54.863h182.879a36.576 36.576 0 0134.884 47.48l-83.53 245.123-162.488-.752z"/><path vector-effect="non-scaling-stroke" d="M107.167 528.965c-10.102 0-18.292 8.205-18.292 18.327v36.656c0 10.122 8.19 18.327 18.292 18.327H302.82v-73.882zM300.054 16.299l-19.117-.509c-5.051 0-9.146 4.103-9.146 9.164v45.819h-45.729c-5.051 0-9.146 4.103-9.146 9.164v54.983c0 5.06 4.095 9.164 9.146 9.164h45.729v54.983H88.875a36.56 36.56 0 00-29.453 14.952 36.714 36.714 0 00-5.438 32.631l83.546 245.66 162.523-.754z" stroke="#000" fill="#fff"/></svg>
